<mxfile host="app.diagrams.net" agent="Mozilla/5.0 (Windows NT 10.0; Win64; x64) AppleWebKit/537.36 (KHTML, like Gecko) Chrome/137.0.0.0 Safari/537.36" version="27.1.4">
  <diagram name="Trang-1" id="9fPnTwgZJp68yQlGrGTN">
    <mxGraphModel dx="2084" dy="1122" grid="0" gridSize="10" guides="1" tooltips="1" connect="1" arrows="1" fold="1" page="1" pageScale="1" pageWidth="4800" pageHeight="4336" background="light-dark(#FFFFFF,#FFFFFF)" math="0" shadow="0">
      <root>
        <mxCell id="0" />
        <mxCell id="1" parent="0" />
        <mxCell id="mclPiAwEp0GrEzuaHdjd-48" value="" style="edgeStyle=orthogonalEdgeStyle;rounded=0;orthogonalLoop=1;jettySize=auto;html=1;" parent="1" source="mclPiAwEp0GrEzuaHdjd-2" target="mclPiAwEp0GrEzuaHdjd-33" edge="1">
          <mxGeometry relative="1" as="geometry" />
        </mxCell>
        <mxCell id="mclPiAwEp0GrEzuaHdjd-2" value="" style="rounded=0;whiteSpace=wrap;html=1;strokeColor=light-dark(#000000,#000000);fillColor=light-dark(#000000,#FFFFFF);gradientColor=none;" parent="1" vertex="1">
          <mxGeometry x="130" y="150" width="240" height="80" as="geometry" />
        </mxCell>
        <mxCell id="mclPiAwEp0GrEzuaHdjd-4" value="" style="rounded=0;whiteSpace=wrap;html=1;fillColor=light-dark(#FFFFFF,#FFFFFF);strokeColor=light-dark(#000000,#000000);" parent="1" vertex="1">
          <mxGeometry x="1020" y="162.5" width="170" height="50" as="geometry" />
        </mxCell>
        <mxCell id="mclPiAwEp0GrEzuaHdjd-5" value="" style="sketch=0;points=[[0,0,0],[0.25,0,0],[0.5,0,0],[0.75,0,0],[1,0,0],[0,1,0],[0.25,1,0],[0.5,1,0],[0.75,1,0],[1,1,0],[0,0.25,0],[0,0.5,0],[0,0.75,0],[1,0.25,0],[1,0.5,0],[1,0.75,0]];outlineConnect=0;fontColor=#232F3E;fillColor=#ED7100;strokeColor=#ffffff;dashed=0;verticalLabelPosition=bottom;verticalAlign=top;align=center;html=1;fontSize=12;fontStyle=0;aspect=fixed;shape=mxgraph.aws4.resourceIcon;resIcon=mxgraph.aws4.lambda;" parent="1" vertex="1">
          <mxGeometry x="1020" y="162.5" width="50" height="50" as="geometry" />
        </mxCell>
        <mxCell id="mclPiAwEp0GrEzuaHdjd-6" value="" style="rounded=0;whiteSpace=wrap;html=1;fillColor=light-dark(#FFFFFF,#FFFFFF);strokeColor=light-dark(#000000,#000000);" parent="1" vertex="1">
          <mxGeometry x="240" y="783" width="240" height="80" as="geometry" />
        </mxCell>
        <mxCell id="mclPiAwEp0GrEzuaHdjd-8" value="&lt;font style=&quot;font-size: 23px;&quot;&gt;&lt;b style=&quot;&quot;&gt;Guardduty&lt;/b&gt;&lt;/font&gt;" style="text;align=center;html=1;verticalAlign=middle;whiteSpace=wrap;rounded=0;fillColor=light-dark(#FFFFFF,#FFFFFF);fontColor=light-dark(#000000,#000000);" parent="1" vertex="1">
          <mxGeometry x="231.5" y="172.5" width="100" height="30" as="geometry" />
        </mxCell>
        <mxCell id="mclPiAwEp0GrEzuaHdjd-9" value="&lt;font style=&quot;font-size: 18px;&quot;&gt;&lt;b style=&quot;&quot;&gt;Record IP&lt;/b&gt;&lt;/font&gt;" style="text;strokeColor=none;align=center;fillColor=none;html=1;verticalAlign=middle;whiteSpace=wrap;rounded=0;fontColor=light-dark(#000000,#000000);fontSize=21;" parent="1" vertex="1">
          <mxGeometry x="1060" y="175" width="140" height="25" as="geometry" />
        </mxCell>
        <mxCell id="mclPiAwEp0GrEzuaHdjd-10" value="&lt;b style=&quot;&quot;&gt;&lt;font style=&quot;font-size: 23px;&quot;&gt;S3 Raw Data&lt;/font&gt;&lt;/b&gt;" style="text;strokeColor=none;align=center;fillColor=none;html=1;verticalAlign=middle;whiteSpace=wrap;rounded=0;fontColor=light-dark(#000000,#000000);" parent="1" vertex="1">
          <mxGeometry x="340" y="808" width="120" height="30" as="geometry" />
        </mxCell>
        <mxCell id="mclPiAwEp0GrEzuaHdjd-14" value="&lt;font style=&quot;color: light-dark(rgb(0, 0, 0), rgb(0, 0, 0)); font-size: 20px;&quot;&gt;AWS Step Functions workflow&lt;/font&gt;" style="sketch=0;outlineConnect=0;gradientColor=none;html=1;whiteSpace=wrap;fontSize=12;fontStyle=0;shape=mxgraph.aws4.group;grIcon=mxgraph.aws4.group_aws_step_functions_workflow;strokeColor=light-dark(#545B64,#000000);fillColor=none;verticalAlign=top;align=left;spacingLeft=30;fontColor=#545B64;dashed=0;" parent="1" vertex="1">
          <mxGeometry x="872" y="105" width="890" height="170" as="geometry" />
        </mxCell>
        <mxCell id="mclPiAwEp0GrEzuaHdjd-16" value="" style="sketch=0;points=[[0,0,0],[0.25,0,0],[0.5,0,0],[0.75,0,0],[1,0,0],[0,1,0],[0.25,1,0],[0.5,1,0],[0.75,1,0],[1,1,0],[0,0.25,0],[0,0.5,0],[0,0.75,0],[1,0.25,0],[1,0.5,0],[1,0.75,0]];outlineConnect=0;fontColor=#232F3E;fillColor=#DD344C;strokeColor=#ffffff;dashed=0;verticalLabelPosition=bottom;verticalAlign=top;align=center;html=1;fontSize=12;fontStyle=0;aspect=fixed;shape=mxgraph.aws4.resourceIcon;resIcon=mxgraph.aws4.guardduty;" parent="1" vertex="1">
          <mxGeometry x="130" y="150" width="80" height="80" as="geometry" />
        </mxCell>
        <mxCell id="mclPiAwEp0GrEzuaHdjd-17" value="Guardduty Data Source" style="swimlane;whiteSpace=wrap;html=1;strokeColor=light-dark(#000000,#000000);" parent="1" vertex="1">
          <mxGeometry x="120" y="380" width="260" height="290" as="geometry" />
        </mxCell>
        <mxCell id="mclPiAwEp0GrEzuaHdjd-19" value="" style="rounded=0;whiteSpace=wrap;html=1;fillColor=light-dark(#FFFFFF,#FFFFFF);strokeColor=light-dark(#000000,#000000);" parent="mclPiAwEp0GrEzuaHdjd-17" vertex="1">
          <mxGeometry x="30" y="70" width="210" height="70" as="geometry" />
        </mxCell>
        <mxCell id="mclPiAwEp0GrEzuaHdjd-18" value="" style="sketch=0;points=[[0,0,0],[0.25,0,0],[0.5,0,0],[0.75,0,0],[1,0,0],[0,1,0],[0.25,1,0],[0.5,1,0],[0.75,1,0],[1,1,0],[0,0.25,0],[0,0.5,0],[0,0.75,0],[1,0.25,0],[1,0.5,0],[1,0.75,0]];points=[[0,0,0],[0.25,0,0],[0.5,0,0],[0.75,0,0],[1,0,0],[0,1,0],[0.25,1,0],[0.5,1,0],[0.75,1,0],[1,1,0],[0,0.25,0],[0,0.5,0],[0,0.75,0],[1,0.25,0],[1,0.5,0],[1,0.75,0]];outlineConnect=0;fontColor=#232F3E;fillColor=#E7157B;strokeColor=#ffffff;dashed=0;verticalLabelPosition=bottom;verticalAlign=top;align=center;html=1;fontSize=12;fontStyle=0;aspect=fixed;shape=mxgraph.aws4.resourceIcon;resIcon=mxgraph.aws4.cloudtrail;" parent="mclPiAwEp0GrEzuaHdjd-17" vertex="1">
          <mxGeometry x="30" y="70" width="70" height="70" as="geometry" />
        </mxCell>
        <mxCell id="mclPiAwEp0GrEzuaHdjd-20" value="&lt;font style=&quot;font-size: 22px;&quot;&gt;&lt;b style=&quot;&quot;&gt;Cloudtrail&lt;/b&gt;&lt;/font&gt;" style="text;strokeColor=none;align=center;fillColor=none;html=1;verticalAlign=middle;whiteSpace=wrap;rounded=0;fontColor=light-dark(#000000,#000000);" parent="mclPiAwEp0GrEzuaHdjd-17" vertex="1">
          <mxGeometry x="120" y="90" width="100" height="30" as="geometry" />
        </mxCell>
        <mxCell id="mclPiAwEp0GrEzuaHdjd-25" value="" style="rounded=0;whiteSpace=wrap;html=1;strokeColor=light-dark(#000000,#000000);fillColor=light-dark(#FFFFFF,#FFFFFF);" parent="mclPiAwEp0GrEzuaHdjd-17" vertex="1">
          <mxGeometry x="30" y="180" width="210" height="70" as="geometry" />
        </mxCell>
        <mxCell id="mclPiAwEp0GrEzuaHdjd-27" value="&lt;font style=&quot;font-size: 22px;&quot;&gt;&lt;b style=&quot;&quot;&gt;VPC Flow Logs&lt;/b&gt;&lt;/font&gt;" style="text;strokeColor=none;align=center;fillColor=none;html=1;verticalAlign=middle;whiteSpace=wrap;rounded=0;fontColor=light-dark(#000000,#000000);" parent="mclPiAwEp0GrEzuaHdjd-17" vertex="1">
          <mxGeometry x="106.5" y="201" width="127" height="30" as="geometry" />
        </mxCell>
        <mxCell id="mclPiAwEp0GrEzuaHdjd-28" value="" style="sketch=0;outlineConnect=0;fontColor=#232F3E;gradientColor=none;fillColor=#8C4FFF;strokeColor=none;dashed=0;verticalLabelPosition=bottom;verticalAlign=top;align=center;html=1;fontSize=12;fontStyle=0;aspect=fixed;pointerEvents=1;shape=mxgraph.aws4.flow_logs;" parent="mclPiAwEp0GrEzuaHdjd-17" vertex="1">
          <mxGeometry x="32" y="182" width="68" height="68" as="geometry" />
        </mxCell>
        <mxCell id="mclPiAwEp0GrEzuaHdjd-29" value="" style="edgeStyle=orthogonalEdgeStyle;html=1;endArrow=none;elbow=vertical;startArrow=block;startFill=1;strokeColor=light-dark(#545B64,#000000);rounded=0;exitX=0.5;exitY=1;exitDx=0;exitDy=0;entryX=0.5;entryY=0;entryDx=0;entryDy=0;" parent="1" source="mclPiAwEp0GrEzuaHdjd-2" target="mclPiAwEp0GrEzuaHdjd-17" edge="1">
          <mxGeometry width="100" relative="1" as="geometry">
            <mxPoint x="190" y="330" as="sourcePoint" />
            <mxPoint x="290" y="330" as="targetPoint" />
          </mxGeometry>
        </mxCell>
        <mxCell id="mclPiAwEp0GrEzuaHdjd-30" value="" style="rounded=0;whiteSpace=wrap;html=1;fillColor=light-dark(#FFFFFF,#FFFFFF);strokeColor=light-dark(#000000,#000000);" parent="1" vertex="1">
          <mxGeometry x="440" y="150" width="240" height="80" as="geometry" />
        </mxCell>
        <mxCell id="mclPiAwEp0GrEzuaHdjd-31" value="&lt;b style=&quot;&quot;&gt;&lt;font style=&quot;font-size: 22px;&quot;&gt;EventBridge&lt;/font&gt;&lt;/b&gt;" style="text;strokeColor=none;align=center;fillColor=light-dark(#FFFFFF,#FFFFFF);html=1;verticalAlign=middle;whiteSpace=wrap;rounded=0;fontColor=light-dark(#000000,#000000);" parent="1" vertex="1">
          <mxGeometry x="550" y="175" width="100" height="30" as="geometry" />
        </mxCell>
        <mxCell id="mclPiAwEp0GrEzuaHdjd-33" value="" style="sketch=0;points=[[0,0,0],[0.25,0,0],[0.5,0,0],[0.75,0,0],[1,0,0],[0,1,0],[0.25,1,0],[0.5,1,0],[0.75,1,0],[1,1,0],[0,0.25,0],[0,0.5,0],[0,0.75,0],[1,0.25,0],[1,0.5,0],[1,0.75,0]];outlineConnect=0;fontColor=#232F3E;fillColor=#E7157B;strokeColor=#ffffff;dashed=0;verticalLabelPosition=bottom;verticalAlign=top;align=center;html=1;fontSize=12;fontStyle=0;aspect=fixed;shape=mxgraph.aws4.resourceIcon;resIcon=mxgraph.aws4.eventbridge;" parent="1" vertex="1">
          <mxGeometry x="440" y="150" width="80" height="80" as="geometry" />
        </mxCell>
        <mxCell id="mclPiAwEp0GrEzuaHdjd-34" value="" style="edgeStyle=orthogonalEdgeStyle;html=1;endArrow=none;elbow=vertical;startArrow=block;startFill=1;strokeColor=light-dark(#545B64,#000000);rounded=0;exitX=0;exitY=0.5;exitDx=0;exitDy=0;entryX=1;entryY=0.5;entryDx=0;entryDy=0;exitPerimeter=0;" parent="1" source="mclPiAwEp0GrEzuaHdjd-33" target="mclPiAwEp0GrEzuaHdjd-2" edge="1">
          <mxGeometry width="100" relative="1" as="geometry">
            <mxPoint x="310" y="330" as="sourcePoint" />
            <mxPoint x="310" y="480" as="targetPoint" />
          </mxGeometry>
        </mxCell>
        <mxCell id="mclPiAwEp0GrEzuaHdjd-36" value="" style="rounded=0;whiteSpace=wrap;html=1;fillColor=light-dark(#FFFFFF,#FFFFFF);strokeColor=light-dark(#000000,#000000);" parent="1" vertex="1">
          <mxGeometry x="1240" y="162.5" width="170" height="50" as="geometry" />
        </mxCell>
        <mxCell id="mclPiAwEp0GrEzuaHdjd-37" value="" style="sketch=0;points=[[0,0,0],[0.25,0,0],[0.5,0,0],[0.75,0,0],[1,0,0],[0,1,0],[0.25,1,0],[0.5,1,0],[0.75,1,0],[1,1,0],[0,0.25,0],[0,0.5,0],[0,0.75,0],[1,0.25,0],[1,0.5,0],[1,0.75,0]];outlineConnect=0;fontColor=#232F3E;fillColor=#ED7100;strokeColor=#ffffff;dashed=0;verticalLabelPosition=bottom;verticalAlign=top;align=center;html=1;fontSize=12;fontStyle=0;aspect=fixed;shape=mxgraph.aws4.resourceIcon;resIcon=mxgraph.aws4.lambda;" parent="1" vertex="1">
          <mxGeometry x="1240" y="162.5" width="50" height="50" as="geometry" />
        </mxCell>
        <mxCell id="mclPiAwEp0GrEzuaHdjd-38" value="&lt;font style=&quot;font-size: 18px;&quot;&gt;&lt;b style=&quot;&quot;&gt;Block Traffic&lt;/b&gt;&lt;/font&gt;" style="text;strokeColor=none;align=center;fillColor=none;html=1;verticalAlign=middle;whiteSpace=wrap;rounded=0;fontColor=light-dark(#000000,#000000);" parent="1" vertex="1">
          <mxGeometry x="1280" y="175" width="140" height="25" as="geometry" />
        </mxCell>
        <mxCell id="mclPiAwEp0GrEzuaHdjd-39" value="" style="rounded=0;whiteSpace=wrap;html=1;fillColor=light-dark(#FFFFFF,#FFFFFF);strokeColor=light-dark(#000000,#000000);" parent="1" vertex="1">
          <mxGeometry x="1460" y="162.5" width="170" height="50" as="geometry" />
        </mxCell>
        <mxCell id="mclPiAwEp0GrEzuaHdjd-40" value="" style="sketch=0;points=[[0,0,0],[0.25,0,0],[0.5,0,0],[0.75,0,0],[1,0,0],[0,1,0],[0.25,1,0],[0.5,1,0],[0.75,1,0],[1,1,0],[0,0.25,0],[0,0.5,0],[0,0.75,0],[1,0.25,0],[1,0.5,0],[1,0.75,0]];outlineConnect=0;fontColor=#232F3E;fillColor=#ED7100;strokeColor=#ffffff;dashed=0;verticalLabelPosition=bottom;verticalAlign=top;align=center;html=1;fontSize=12;fontStyle=0;aspect=fixed;shape=mxgraph.aws4.resourceIcon;resIcon=mxgraph.aws4.lambda;" parent="1" vertex="1">
          <mxGeometry x="1460" y="162.5" width="50" height="50" as="geometry" />
        </mxCell>
        <mxCell id="mclPiAwEp0GrEzuaHdjd-41" value="&lt;font style=&quot;font-size: 18px;&quot;&gt;&lt;b style=&quot;&quot;&gt;Notify SNS&lt;/b&gt;&lt;/font&gt;" style="text;strokeColor=none;align=center;fillColor=none;html=1;verticalAlign=middle;whiteSpace=wrap;rounded=0;fontColor=light-dark(#000000,#000000);" parent="1" vertex="1">
          <mxGeometry x="1501" y="177.5" width="140" height="25" as="geometry" />
        </mxCell>
        <mxCell id="mclPiAwEp0GrEzuaHdjd-45" style="edgeStyle=orthogonalEdgeStyle;rounded=0;orthogonalLoop=1;jettySize=auto;html=1;exitX=0.5;exitY=1;exitDx=0;exitDy=0;" parent="1" edge="1">
          <mxGeometry relative="1" as="geometry">
            <mxPoint x="1125" y="350" as="sourcePoint" />
            <mxPoint x="1125" y="350" as="targetPoint" />
          </mxGeometry>
        </mxCell>
        <mxCell id="mclPiAwEp0GrEzuaHdjd-46" value="&lt;b&gt;&lt;font style=&quot;font-size: 20px;&quot;&gt;Start&lt;/font&gt;&lt;/b&gt;" style="ellipse;whiteSpace=wrap;html=1;aspect=fixed;fontColor=light-dark(#000000,#000000);fillColor=light-dark(#FFFFFF,#FFFFFF);strokeColor=light-dark(#000000,#000000);" parent="1" vertex="1">
          <mxGeometry x="900" y="157.5" width="60" height="60" as="geometry" />
        </mxCell>
        <mxCell id="mclPiAwEp0GrEzuaHdjd-47" value="&lt;b&gt;&lt;font style=&quot;font-size: 21px;&quot;&gt;End&lt;/font&gt;&lt;/b&gt;" style="ellipse;whiteSpace=wrap;html=1;aspect=fixed;fillColor=light-dark(#FFFFFF,#FFFFFF);strokeColor=light-dark(#000000,#000000);fontColor=light-dark(#000000,#000000);" parent="1" vertex="1">
          <mxGeometry x="1686" y="160" width="60" height="60" as="geometry" />
        </mxCell>
        <mxCell id="mclPiAwEp0GrEzuaHdjd-49" value="" style="edgeStyle=orthogonalEdgeStyle;html=1;endArrow=none;elbow=vertical;startArrow=block;startFill=1;strokeColor=light-dark(#545B64,#000000);rounded=0;exitX=0;exitY=0.5;exitDx=0;exitDy=0;entryX=1;entryY=0.5;entryDx=0;entryDy=0;exitPerimeter=0;" parent="1" source="mclPiAwEp0GrEzuaHdjd-5" target="mclPiAwEp0GrEzuaHdjd-46" edge="1">
          <mxGeometry width="100" relative="1" as="geometry">
            <mxPoint x="850" y="235" as="sourcePoint" />
            <mxPoint x="780" y="235" as="targetPoint" />
          </mxGeometry>
        </mxCell>
        <mxCell id="mclPiAwEp0GrEzuaHdjd-50" value="" style="edgeStyle=orthogonalEdgeStyle;html=1;endArrow=none;elbow=vertical;startArrow=block;startFill=1;strokeColor=light-dark(#545B64,#000000);rounded=0;exitX=0;exitY=0.5;exitDx=0;exitDy=0;exitPerimeter=0;entryX=1;entryY=0.5;entryDx=0;entryDy=0;" parent="1" source="mclPiAwEp0GrEzuaHdjd-37" target="mclPiAwEp0GrEzuaHdjd-4" edge="1">
          <mxGeometry width="100" relative="1" as="geometry">
            <mxPoint x="1030" y="225" as="sourcePoint" />
            <mxPoint x="1190" y="195" as="targetPoint" />
          </mxGeometry>
        </mxCell>
        <mxCell id="mclPiAwEp0GrEzuaHdjd-51" value="" style="edgeStyle=orthogonalEdgeStyle;html=1;endArrow=none;elbow=vertical;startArrow=block;startFill=1;strokeColor=light-dark(#545B64,#000000);rounded=0;exitX=0;exitY=0.5;exitDx=0;exitDy=0;exitPerimeter=0;entryX=1;entryY=0.5;entryDx=0;entryDy=0;" parent="1" source="mclPiAwEp0GrEzuaHdjd-40" target="mclPiAwEp0GrEzuaHdjd-36" edge="1">
          <mxGeometry width="100" relative="1" as="geometry">
            <mxPoint x="1390" y="265" as="sourcePoint" />
            <mxPoint x="1320" y="265" as="targetPoint" />
          </mxGeometry>
        </mxCell>
        <mxCell id="mclPiAwEp0GrEzuaHdjd-52" value="" style="edgeStyle=orthogonalEdgeStyle;html=1;endArrow=none;elbow=vertical;startArrow=block;startFill=1;strokeColor=light-dark(#545B64,#000000);rounded=0;exitX=0;exitY=0.5;exitDx=0;exitDy=0;" parent="1" source="mclPiAwEp0GrEzuaHdjd-47" edge="1">
          <mxGeometry width="100" relative="1" as="geometry">
            <mxPoint x="1590" y="355" as="sourcePoint" />
            <mxPoint x="1628" y="190" as="targetPoint" />
          </mxGeometry>
        </mxCell>
        <mxCell id="mclPiAwEp0GrEzuaHdjd-53" value="" style="edgeStyle=orthogonalEdgeStyle;html=1;endArrow=none;elbow=vertical;startArrow=block;startFill=1;strokeColor=light-dark(#545B64,#000000);rounded=0;entryX=1;entryY=0.5;entryDx=0;entryDy=0;exitX=0;exitY=0.5;exitDx=0;exitDy=0;" parent="1" source="j457YnfjW28pkleL_D3V-96" target="mclPiAwEp0GrEzuaHdjd-30" edge="1">
          <mxGeometry width="100" relative="1" as="geometry">
            <mxPoint x="690" y="370" as="sourcePoint" />
            <mxPoint x="620" y="370" as="targetPoint" />
          </mxGeometry>
        </mxCell>
        <mxCell id="mclPiAwEp0GrEzuaHdjd-57" value="" style="rounded=0;whiteSpace=wrap;html=1;fillColor=light-dark(#FFFFFF,#FFFFFF);strokeColor=light-dark(#000000,#000000);" parent="1" vertex="1">
          <mxGeometry x="1130" y="690" width="240" height="80" as="geometry" />
        </mxCell>
        <mxCell id="mclPiAwEp0GrEzuaHdjd-59" value="&lt;b style=&quot;&quot;&gt;&lt;font style=&quot;font-size: 24px;&quot;&gt;Network Firewall&lt;/font&gt;&lt;/b&gt;" style="text;strokeColor=none;align=center;fillColor=none;html=1;verticalAlign=middle;whiteSpace=wrap;rounded=0;fontColor=light-dark(#000000,#000000);" parent="1" vertex="1">
          <mxGeometry x="1230" y="715" width="120" height="30" as="geometry" />
        </mxCell>
        <mxCell id="mclPiAwEp0GrEzuaHdjd-63" value="" style="rounded=0;whiteSpace=wrap;html=1;fillColor=light-dark(#FFFFFF,#FFFFFF);strokeColor=light-dark(#000000,#000000);" parent="1" vertex="1">
          <mxGeometry x="1130" y="470" width="240" height="80" as="geometry" />
        </mxCell>
        <mxCell id="mclPiAwEp0GrEzuaHdjd-65" value="&lt;font style=&quot;font-size: 24px;&quot;&gt;&lt;b style=&quot;&quot;&gt;Firewall Policy&lt;/b&gt;&lt;/font&gt;" style="text;strokeColor=none;align=center;fillColor=none;html=1;verticalAlign=middle;whiteSpace=wrap;rounded=0;fontColor=light-dark(#000000,#000000);" parent="1" vertex="1">
          <mxGeometry x="1230" y="495" width="120" height="30" as="geometry" />
        </mxCell>
        <mxCell id="mclPiAwEp0GrEzuaHdjd-66" value="" style="image;aspect=fixed;html=1;points=[];align=center;fontSize=12;image=img/lib/azure2/networking/Azure_Firewall_Policy.svg;fontColor=light-dark(#000000,#FFFFFF);imageBackground=light-dark(#FFFFFF,#FFFFFF);imageBorder=none;" parent="1" vertex="1">
          <mxGeometry x="1150" y="495" width="68" height="49.32" as="geometry" />
        </mxCell>
        <mxCell id="mclPiAwEp0GrEzuaHdjd-67" value="" style="edgeStyle=orthogonalEdgeStyle;html=1;endArrow=block;elbow=vertical;startArrow=none;endFill=1;strokeColor=light-dark(#545B64,#000000);rounded=0;exitX=0.5;exitY=1;exitDx=0;exitDy=0;entryX=0.5;entryY=0;entryDx=0;entryDy=0;" parent="1" source="mclPiAwEp0GrEzuaHdjd-36" target="mclPiAwEp0GrEzuaHdjd-63" edge="1">
          <mxGeometry width="100" relative="1" as="geometry">
            <mxPoint x="1225" y="300" as="sourcePoint" />
            <mxPoint x="1170" y="552" as="targetPoint" />
          </mxGeometry>
        </mxCell>
        <mxCell id="mclPiAwEp0GrEzuaHdjd-68" value="" style="rounded=0;whiteSpace=wrap;html=1;fillColor=light-dark(#FFFFFF,#FFFFFF);strokeColor=light-dark(#000000,#000000);" parent="1" vertex="1">
          <mxGeometry x="1460" y="470" width="240" height="80" as="geometry" />
        </mxCell>
        <mxCell id="mclPiAwEp0GrEzuaHdjd-70" value="&lt;font style=&quot;font-size: 24px;&quot;&gt;&lt;b style=&quot;&quot;&gt;SNS&lt;/b&gt;&lt;/font&gt;" style="text;strokeColor=none;align=center;fillColor=none;html=1;verticalAlign=middle;whiteSpace=wrap;rounded=0;fontColor=light-dark(#000000,#000000);" parent="1" vertex="1">
          <mxGeometry x="1560" y="498" width="120" height="30" as="geometry" />
        </mxCell>
        <mxCell id="mclPiAwEp0GrEzuaHdjd-71" value="" style="sketch=0;points=[[0,0,0],[0.25,0,0],[0.5,0,0],[0.75,0,0],[1,0,0],[0,1,0],[0.25,1,0],[0.5,1,0],[0.75,1,0],[1,1,0],[0,0.25,0],[0,0.5,0],[0,0.75,0],[1,0.25,0],[1,0.5,0],[1,0.75,0]];outlineConnect=0;fontColor=#232F3E;fillColor=#E7157B;strokeColor=#ffffff;dashed=0;verticalLabelPosition=bottom;verticalAlign=top;align=center;html=1;fontSize=12;fontStyle=0;aspect=fixed;shape=mxgraph.aws4.resourceIcon;resIcon=mxgraph.aws4.sns;" parent="1" vertex="1">
          <mxGeometry x="1460" y="470" width="80" height="80" as="geometry" />
        </mxCell>
        <mxCell id="mclPiAwEp0GrEzuaHdjd-72" value="" style="edgeStyle=orthogonalEdgeStyle;html=1;endArrow=block;elbow=vertical;startArrow=none;endFill=1;strokeColor=light-dark(#545B64,#000000);rounded=0;exitX=0.5;exitY=1;exitDx=0;exitDy=0;entryX=0.5;entryY=0;entryDx=0;entryDy=0;" parent="1" source="mclPiAwEp0GrEzuaHdjd-39" target="mclPiAwEp0GrEzuaHdjd-68" edge="1">
          <mxGeometry width="100" relative="1" as="geometry">
            <mxPoint x="1360" y="360" as="sourcePoint" />
            <mxPoint x="1385" y="612" as="targetPoint" />
          </mxGeometry>
        </mxCell>
        <mxCell id="mclPiAwEp0GrEzuaHdjd-73" value="" style="sketch=0;pointerEvents=1;shadow=0;dashed=0;html=1;strokeColor=none;labelPosition=center;verticalLabelPosition=bottom;verticalAlign=top;align=center;fillColor=light-dark(#515151,#000000);shape=mxgraph.mscae.system_center.admin_console" parent="1" vertex="1">
          <mxGeometry x="1890" y="280" width="120" height="86" as="geometry" />
        </mxCell>
        <mxCell id="mclPiAwEp0GrEzuaHdjd-74" value="" style="edgeStyle=orthogonalEdgeStyle;html=1;endArrow=block;elbow=vertical;startArrow=none;endFill=1;strokeColor=light-dark(#545B64,#000000);rounded=0;exitX=1;exitY=0.5;exitDx=0;exitDy=0;entryX=0;entryY=0.5;entryDx=0;entryDy=0;entryPerimeter=0;" parent="1" source="mclPiAwEp0GrEzuaHdjd-68" target="mclPiAwEp0GrEzuaHdjd-73" edge="1">
          <mxGeometry width="100" relative="1" as="geometry">
            <mxPoint x="1650" y="370" as="sourcePoint" />
            <mxPoint x="1785" y="622" as="targetPoint" />
          </mxGeometry>
        </mxCell>
        <mxCell id="mclPiAwEp0GrEzuaHdjd-75" value="" style="sketch=0;points=[[0,0,0],[0.25,0,0],[0.5,0,0],[0.75,0,0],[1,0,0],[0,1,0],[0.25,1,0],[0.5,1,0],[0.75,1,0],[1,1,0],[0,0.25,0],[0,0.5,0],[0,0.75,0],[1,0.25,0],[1,0.5,0],[1,0.75,0]];outlineConnect=0;fontColor=#232F3E;fillColor=#DD344C;strokeColor=#ffffff;dashed=0;verticalLabelPosition=bottom;verticalAlign=top;align=center;html=1;fontSize=12;fontStyle=0;aspect=fixed;shape=mxgraph.aws4.resourceIcon;resIcon=mxgraph.aws4.network_firewall;" parent="1" vertex="1">
          <mxGeometry x="1130" y="690" width="80" height="80" as="geometry" />
        </mxCell>
        <mxCell id="mclPiAwEp0GrEzuaHdjd-76" value="" style="edgeStyle=orthogonalEdgeStyle;html=1;endArrow=block;elbow=vertical;startArrow=none;endFill=1;strokeColor=#545B64;rounded=0;exitX=0.5;exitY=1;exitDx=0;exitDy=0;entryX=0.5;entryY=0;entryDx=0;entryDy=0;" parent="1" source="mclPiAwEp0GrEzuaHdjd-63" target="mclPiAwEp0GrEzuaHdjd-57" edge="1">
          <mxGeometry width="100" relative="1" as="geometry">
            <mxPoint x="1200" y="680" as="sourcePoint" />
            <mxPoint x="1225" y="932" as="targetPoint" />
          </mxGeometry>
        </mxCell>
        <mxCell id="mclPiAwEp0GrEzuaHdjd-77" value="&lt;font style=&quot;font-size: 14px;&quot;&gt;&lt;b&gt;Gmail Admin&lt;/b&gt;&lt;/font&gt;" style="text;html=1;align=center;verticalAlign=middle;resizable=0;points=[];autosize=1;strokeColor=none;fillColor=none;" parent="1" vertex="1">
          <mxGeometry x="1890" y="380" width="110" height="30" as="geometry" />
        </mxCell>
        <mxCell id="j457YnfjW28pkleL_D3V-2" value="" style="sketch=0;points=[[0,0,0],[0.25,0,0],[0.5,0,0],[0.75,0,0],[1,0,0],[0,1,0],[0.25,1,0],[0.5,1,0],[0.75,1,0],[1,1,0],[0,0.25,0],[0,0.5,0],[0,0.75,0],[1,0.25,0],[1,0.5,0],[1,0.75,0]];outlineConnect=0;fontColor=#232F3E;fillColor=#7AA116;strokeColor=#ffffff;dashed=0;verticalLabelPosition=bottom;verticalAlign=top;align=center;html=1;fontSize=12;fontStyle=0;aspect=fixed;shape=mxgraph.aws4.resourceIcon;resIcon=mxgraph.aws4.s3;" parent="1" vertex="1">
          <mxGeometry x="240" y="780" width="83" height="83" as="geometry" />
        </mxCell>
        <mxCell id="j457YnfjW28pkleL_D3V-3" value="" style="rounded=0;whiteSpace=wrap;html=1;fillColor=light-dark(#FFFFFF,#FFFFFF);strokeColor=light-dark(#000000,#000000);" parent="1" vertex="1">
          <mxGeometry x="540" y="733" width="240" height="75" as="geometry" />
        </mxCell>
        <mxCell id="j457YnfjW28pkleL_D3V-4" value="&lt;b style=&quot;&quot;&gt;&lt;font style=&quot;font-size: 25px;&quot;&gt;Athena&lt;/font&gt;&lt;/b&gt;" style="text;strokeColor=none;align=center;fillColor=none;html=1;verticalAlign=middle;whiteSpace=wrap;rounded=0;fontColor=light-dark(#000000,#000000);" parent="1" vertex="1">
          <mxGeometry x="640" y="758" width="120" height="30" as="geometry" />
        </mxCell>
        <mxCell id="j457YnfjW28pkleL_D3V-6" value="" style="sketch=0;points=[[0,0,0],[0.25,0,0],[0.5,0,0],[0.75,0,0],[1,0,0],[0,1,0],[0.25,1,0],[0.5,1,0],[0.75,1,0],[1,1,0],[0,0.25,0],[0,0.5,0],[0,0.75,0],[1,0.25,0],[1,0.5,0],[1,0.75,0]];outlineConnect=0;fontColor=#232F3E;fillColor=#8C4FFF;strokeColor=#ffffff;dashed=0;verticalLabelPosition=bottom;verticalAlign=top;align=center;html=1;fontSize=12;fontStyle=0;aspect=fixed;shape=mxgraph.aws4.resourceIcon;resIcon=mxgraph.aws4.athena;" parent="1" vertex="1">
          <mxGeometry x="540" y="733" width="75" height="75" as="geometry" />
        </mxCell>
        <mxCell id="j457YnfjW28pkleL_D3V-7" value="" style="edgeStyle=orthogonalEdgeStyle;html=1;endArrow=none;elbow=vertical;startArrow=block;startFill=1;strokeColor=light-dark(#545B64,#000000);rounded=0;entryX=0.5;entryY=1;entryDx=0;entryDy=0;exitX=0.298;exitY=0.015;exitDx=0;exitDy=0;exitPerimeter=0;" parent="1" source="j457YnfjW28pkleL_D3V-27" target="j457YnfjW28pkleL_D3V-3" edge="1">
          <mxGeometry width="100" relative="1" as="geometry">
            <mxPoint x="640" y="540" as="sourcePoint" />
            <mxPoint x="570" y="540" as="targetPoint" />
          </mxGeometry>
        </mxCell>
        <mxCell id="j457YnfjW28pkleL_D3V-24" value="" style="rounded=0;whiteSpace=wrap;html=1;fillColor=light-dark(#FFFFFF,#FFFFFF);strokeColor=light-dark(#000000,#000000);" parent="1" vertex="1">
          <mxGeometry x="342" y="1062" width="170" height="50" as="geometry" />
        </mxCell>
        <mxCell id="j457YnfjW28pkleL_D3V-25" value="" style="sketch=0;points=[[0,0,0],[0.25,0,0],[0.5,0,0],[0.75,0,0],[1,0,0],[0,1,0],[0.25,1,0],[0.5,1,0],[0.75,1,0],[1,1,0],[0,0.25,0],[0,0.5,0],[0,0.75,0],[1,0.25,0],[1,0.5,0],[1,0.75,0]];outlineConnect=0;fontColor=#232F3E;fillColor=#ED7100;strokeColor=#ffffff;dashed=0;verticalLabelPosition=bottom;verticalAlign=top;align=center;html=1;fontSize=12;fontStyle=0;aspect=fixed;shape=mxgraph.aws4.resourceIcon;resIcon=mxgraph.aws4.lambda;" parent="1" vertex="1">
          <mxGeometry x="342" y="1062" width="50" height="50" as="geometry" />
        </mxCell>
        <mxCell id="j457YnfjW28pkleL_D3V-26" value="&lt;b style=&quot;&quot;&gt;&lt;font style=&quot;font-size: 21px;&quot;&gt;HuntDGA&lt;/font&gt;&lt;/b&gt;" style="text;strokeColor=none;align=center;fillColor=none;html=1;verticalAlign=middle;whiteSpace=wrap;rounded=0;fontColor=light-dark(#000000,#000000);" parent="1" vertex="1">
          <mxGeometry x="382" y="1074.5" width="140" height="25" as="geometry" />
        </mxCell>
        <mxCell id="j457YnfjW28pkleL_D3V-27" value="&lt;font style=&quot;color: light-dark(rgb(0, 0, 0), rgb(0, 0, 0)); font-size: 20px;&quot;&gt;AWS Step Functions workflow&lt;/font&gt;" style="sketch=0;outlineConnect=0;gradientColor=none;html=1;whiteSpace=wrap;fontSize=12;fontStyle=0;shape=mxgraph.aws4.group;grIcon=mxgraph.aws4.group_aws_step_functions_workflow;strokeColor=light-dark(#545B64,#000000);fillColor=none;verticalAlign=top;align=left;spacingLeft=30;fontColor=#545B64;dashed=0;" parent="1" vertex="1">
          <mxGeometry x="196" y="1001.5" width="1527" height="170" as="geometry" />
        </mxCell>
        <mxCell id="j457YnfjW28pkleL_D3V-28" value="" style="rounded=0;whiteSpace=wrap;html=1;fillColor=light-dark(#FFFFFF,#FFFFFF);strokeColor=light-dark(#000000,#000000);" parent="1" vertex="1">
          <mxGeometry x="562" y="1062" width="243" height="50" as="geometry" />
        </mxCell>
        <mxCell id="j457YnfjW28pkleL_D3V-29" value="" style="sketch=0;points=[[0,0,0],[0.25,0,0],[0.5,0,0],[0.75,0,0],[1,0,0],[0,1,0],[0.25,1,0],[0.5,1,0],[0.75,1,0],[1,1,0],[0,0.25,0],[0,0.5,0],[0,0.75,0],[1,0.25,0],[1,0.5,0],[1,0.75,0]];outlineConnect=0;fontColor=#232F3E;fillColor=#ED7100;strokeColor=#ffffff;dashed=0;verticalLabelPosition=bottom;verticalAlign=top;align=center;html=1;fontSize=12;fontStyle=0;aspect=fixed;shape=mxgraph.aws4.resourceIcon;resIcon=mxgraph.aws4.lambda;" parent="1" vertex="1">
          <mxGeometry x="562" y="1062" width="50" height="50" as="geometry" />
        </mxCell>
        <mxCell id="j457YnfjW28pkleL_D3V-30" value="&lt;b style=&quot;&quot;&gt;&lt;font style=&quot;font-size: 21px;&quot;&gt;HuntMaliciousFile&lt;/font&gt;&lt;/b&gt;" style="text;strokeColor=none;align=center;fillColor=none;html=1;verticalAlign=middle;whiteSpace=wrap;rounded=0;fontColor=light-dark(#000000,#000000);" parent="1" vertex="1">
          <mxGeometry x="640" y="1074" width="140" height="25" as="geometry" />
        </mxCell>
        <mxCell id="j457YnfjW28pkleL_D3V-31" value="" style="rounded=0;whiteSpace=wrap;html=1;fillColor=light-dark(#FFFFFF,#FFFFFF);strokeColor=light-dark(#000000,#000000);" parent="1" vertex="1">
          <mxGeometry x="838" y="1061.75" width="249" height="50" as="geometry" />
        </mxCell>
        <mxCell id="j457YnfjW28pkleL_D3V-32" value="" style="sketch=0;points=[[0,0,0],[0.25,0,0],[0.5,0,0],[0.75,0,0],[1,0,0],[0,1,0],[0.25,1,0],[0.5,1,0],[0.75,1,0],[1,1,0],[0,0.25,0],[0,0.5,0],[0,0.75,0],[1,0.25,0],[1,0.5,0],[1,0.75,0]];outlineConnect=0;fontColor=#232F3E;fillColor=#ED7100;strokeColor=#ffffff;dashed=0;verticalLabelPosition=bottom;verticalAlign=top;align=center;html=1;fontSize=12;fontStyle=0;aspect=fixed;shape=mxgraph.aws4.resourceIcon;resIcon=mxgraph.aws4.lambda;" parent="1" vertex="1">
          <mxGeometry x="838" y="1061.75" width="50" height="50" as="geometry" />
        </mxCell>
        <mxCell id="j457YnfjW28pkleL_D3V-33" value="&lt;b style=&quot;&quot;&gt;&lt;font style=&quot;font-size: 21px;&quot;&gt;HuntCryptoMining&lt;/font&gt;&lt;/b&gt;" style="text;strokeColor=none;align=center;fillColor=none;html=1;verticalAlign=middle;whiteSpace=wrap;rounded=0;fontColor=light-dark(#000000,#000000);" parent="1" vertex="1">
          <mxGeometry x="921" y="1074.25" width="140" height="25" as="geometry" />
        </mxCell>
        <mxCell id="j457YnfjW28pkleL_D3V-34" value="&lt;b&gt;&lt;font style=&quot;font-size: 21px;&quot;&gt;Start&lt;/font&gt;&lt;/b&gt;" style="ellipse;whiteSpace=wrap;html=1;aspect=fixed;fillColor=light-dark(#FFFFFF,#FFFFFF);strokeColor=light-dark(#000000,#000000);fontColor=light-dark(#000000,#000000);" parent="1" vertex="1">
          <mxGeometry x="222" y="1057" width="60" height="60" as="geometry" />
        </mxCell>
        <mxCell id="j457YnfjW28pkleL_D3V-35" value="&lt;b&gt;&lt;font style=&quot;font-size: 22px;&quot;&gt;End&lt;/font&gt;&lt;/b&gt;" style="ellipse;whiteSpace=wrap;html=1;aspect=fixed;fillColor=light-dark(#FFFFFF,#FFFFFF);strokeColor=light-dark(#000000,#000000);fontColor=light-dark(#000000,#000000);" parent="1" vertex="1">
          <mxGeometry x="1633" y="1057" width="60" height="60" as="geometry" />
        </mxCell>
        <mxCell id="j457YnfjW28pkleL_D3V-36" value="" style="edgeStyle=orthogonalEdgeStyle;html=1;endArrow=none;elbow=vertical;startArrow=block;startFill=1;strokeColor=light-dark(#545B64,#000000);rounded=0;exitX=0;exitY=0.5;exitDx=0;exitDy=0;entryX=1;entryY=0.5;entryDx=0;entryDy=0;exitPerimeter=0;" parent="1" source="j457YnfjW28pkleL_D3V-25" target="j457YnfjW28pkleL_D3V-34" edge="1">
          <mxGeometry width="100" relative="1" as="geometry">
            <mxPoint x="172" y="1134.5" as="sourcePoint" />
            <mxPoint x="102" y="1134.5" as="targetPoint" />
          </mxGeometry>
        </mxCell>
        <mxCell id="j457YnfjW28pkleL_D3V-37" value="" style="edgeStyle=orthogonalEdgeStyle;html=1;endArrow=none;elbow=vertical;startArrow=block;startFill=1;strokeColor=light-dark(#545B64,#000000);rounded=0;exitX=0;exitY=0.5;exitDx=0;exitDy=0;exitPerimeter=0;entryX=1;entryY=0.5;entryDx=0;entryDy=0;" parent="1" source="j457YnfjW28pkleL_D3V-29" target="j457YnfjW28pkleL_D3V-24" edge="1">
          <mxGeometry width="100" relative="1" as="geometry">
            <mxPoint x="352" y="1124.5" as="sourcePoint" />
            <mxPoint x="512" y="1094.5" as="targetPoint" />
          </mxGeometry>
        </mxCell>
        <mxCell id="j457YnfjW28pkleL_D3V-38" value="" style="edgeStyle=orthogonalEdgeStyle;html=1;endArrow=none;elbow=vertical;startArrow=block;startFill=1;strokeColor=light-dark(#545B64,#000000);rounded=0;exitX=0;exitY=0.5;exitDx=0;exitDy=0;exitPerimeter=0;entryX=1;entryY=0.5;entryDx=0;entryDy=0;" parent="1" source="j457YnfjW28pkleL_D3V-32" target="j457YnfjW28pkleL_D3V-28" edge="1">
          <mxGeometry width="100" relative="1" as="geometry">
            <mxPoint x="712" y="1164.5" as="sourcePoint" />
            <mxPoint x="642" y="1164.5" as="targetPoint" />
          </mxGeometry>
        </mxCell>
        <mxCell id="j457YnfjW28pkleL_D3V-39" value="" style="edgeStyle=orthogonalEdgeStyle;html=1;endArrow=none;elbow=vertical;startArrow=block;startFill=1;strokeColor=light-dark(#545B64,#000000);rounded=0;exitX=0;exitY=0.5;exitDx=0;exitDy=0;entryX=1;entryY=0.5;entryDx=0;entryDy=0;exitPerimeter=0;" parent="1" source="j457YnfjW28pkleL_D3V-41" target="j457YnfjW28pkleL_D3V-33" edge="1">
          <mxGeometry width="100" relative="1" as="geometry">
            <mxPoint x="912" y="1254.5" as="sourcePoint" />
            <mxPoint x="842" y="1254.5" as="targetPoint" />
          </mxGeometry>
        </mxCell>
        <mxCell id="j457YnfjW28pkleL_D3V-40" value="" style="rounded=0;whiteSpace=wrap;html=1;fillColor=light-dark(#FFFFFF,#FFFFFF);strokeColor=light-dark(#000000,#000000);" parent="1" vertex="1">
          <mxGeometry x="1144" y="1062" width="170" height="50" as="geometry" />
        </mxCell>
        <mxCell id="j457YnfjW28pkleL_D3V-41" value="" style="sketch=0;points=[[0,0,0],[0.25,0,0],[0.5,0,0],[0.75,0,0],[1,0,0],[0,1,0],[0.25,1,0],[0.5,1,0],[0.75,1,0],[1,1,0],[0,0.25,0],[0,0.5,0],[0,0.75,0],[1,0.25,0],[1,0.5,0],[1,0.75,0]];outlineConnect=0;fontColor=#232F3E;fillColor=#ED7100;strokeColor=#ffffff;dashed=0;verticalLabelPosition=bottom;verticalAlign=top;align=center;html=1;fontSize=12;fontStyle=0;aspect=fixed;shape=mxgraph.aws4.resourceIcon;resIcon=mxgraph.aws4.lambda;" parent="1" vertex="1">
          <mxGeometry x="1144" y="1062" width="50" height="50" as="geometry" />
        </mxCell>
        <mxCell id="j457YnfjW28pkleL_D3V-42" value="&lt;b style=&quot;&quot;&gt;&lt;font style=&quot;font-size: 21px;&quot;&gt;HuntDDoS&lt;/font&gt;&lt;/b&gt;" style="text;strokeColor=none;align=center;fillColor=none;html=1;verticalAlign=middle;whiteSpace=wrap;rounded=0;fontColor=light-dark(#000000,#000000);" parent="1" vertex="1">
          <mxGeometry x="1184" y="1074.5" width="140" height="25" as="geometry" />
        </mxCell>
        <mxCell id="j457YnfjW28pkleL_D3V-43" value="" style="rounded=0;whiteSpace=wrap;html=1;fillColor=light-dark(#FFFFFF,#FFFFFF);strokeColor=light-dark(#000000,#000000);" parent="1" vertex="1">
          <mxGeometry x="1370" y="1062" width="202" height="50" as="geometry" />
        </mxCell>
        <mxCell id="j457YnfjW28pkleL_D3V-44" value="" style="sketch=0;points=[[0,0,0],[0.25,0,0],[0.5,0,0],[0.75,0,0],[1,0,0],[0,1,0],[0.25,1,0],[0.5,1,0],[0.75,1,0],[1,1,0],[0,0.25,0],[0,0.5,0],[0,0.75,0],[1,0.25,0],[1,0.5,0],[1,0.75,0]];outlineConnect=0;fontColor=#232F3E;fillColor=#ED7100;strokeColor=#ffffff;dashed=0;verticalLabelPosition=bottom;verticalAlign=top;align=center;html=1;fontSize=12;fontStyle=0;aspect=fixed;shape=mxgraph.aws4.resourceIcon;resIcon=mxgraph.aws4.lambda;" parent="1" vertex="1">
          <mxGeometry x="1370" y="1062" width="50" height="50" as="geometry" />
        </mxCell>
        <mxCell id="j457YnfjW28pkleL_D3V-45" value="&lt;b style=&quot;&quot;&gt;&lt;font style=&quot;font-size: 21px;&quot;&gt;HuntMalware&lt;/font&gt;&lt;/b&gt;" style="text;strokeColor=none;align=center;fillColor=none;html=1;verticalAlign=middle;whiteSpace=wrap;rounded=0;fontColor=light-dark(#000000,#000000);" parent="1" vertex="1">
          <mxGeometry x="1429" y="1074" width="140" height="25.5" as="geometry" />
        </mxCell>
        <mxCell id="j457YnfjW28pkleL_D3V-46" value="" style="edgeStyle=orthogonalEdgeStyle;html=1;endArrow=none;elbow=vertical;startArrow=block;startFill=1;strokeColor=light-dark(#545B64,#000000);rounded=0;exitX=0;exitY=0.5;exitDx=0;exitDy=0;entryX=1;entryY=0.5;entryDx=0;entryDy=0;exitPerimeter=0;" parent="1" source="j457YnfjW28pkleL_D3V-44" target="j457YnfjW28pkleL_D3V-40" edge="1">
          <mxGeometry width="100" relative="1" as="geometry">
            <mxPoint x="1052" y="1204.5" as="sourcePoint" />
            <mxPoint x="982" y="1204.5" as="targetPoint" />
          </mxGeometry>
        </mxCell>
        <mxCell id="j457YnfjW28pkleL_D3V-47" value="" style="edgeStyle=orthogonalEdgeStyle;html=1;endArrow=none;elbow=vertical;startArrow=block;startFill=1;strokeColor=light-dark(#545B64,#000000);rounded=0;exitX=0;exitY=0.5;exitDx=0;exitDy=0;entryX=1;entryY=0.5;entryDx=0;entryDy=0;" parent="1" source="j457YnfjW28pkleL_D3V-35" target="j457YnfjW28pkleL_D3V-43" edge="1">
          <mxGeometry width="100" relative="1" as="geometry">
            <mxPoint x="1412" y="1174.5" as="sourcePoint" />
            <mxPoint x="1372" y="1174.5" as="targetPoint" />
          </mxGeometry>
        </mxCell>
        <mxCell id="j457YnfjW28pkleL_D3V-48" value="" style="edgeStyle=orthogonalEdgeStyle;html=1;endArrow=none;elbow=vertical;startArrow=block;startFill=1;strokeColor=light-dark(#545B64,#000000);rounded=0;exitX=0;exitY=0.25;exitDx=0;exitDy=0;entryX=1;entryY=0.5;entryDx=0;entryDy=0;exitPerimeter=0;" parent="1" source="j457YnfjW28pkleL_D3V-2" target="mclPiAwEp0GrEzuaHdjd-17" edge="1">
          <mxGeometry width="100" relative="1" as="geometry">
            <mxPoint x="870" y="640" as="sourcePoint" />
            <mxPoint x="780" y="839" as="targetPoint" />
          </mxGeometry>
        </mxCell>
        <mxCell id="j457YnfjW28pkleL_D3V-49" value="" style="edgeStyle=orthogonalEdgeStyle;html=1;endArrow=none;elbow=vertical;startArrow=block;startFill=1;strokeColor=light-dark(#545B64,#000000);rounded=0;exitX=0.75;exitY=1;exitDx=0;exitDy=0;entryX=0.34;entryY=0.015;entryDx=0;entryDy=0;entryPerimeter=0;" parent="1" source="j457YnfjW28pkleL_D3V-3" target="j457YnfjW28pkleL_D3V-27" edge="1">
          <mxGeometry width="100" relative="1" as="geometry">
            <mxPoint x="920" y="1095" as="sourcePoint" />
            <mxPoint x="680" y="940" as="targetPoint" />
          </mxGeometry>
        </mxCell>
        <mxCell id="j457YnfjW28pkleL_D3V-50" value="" style="rounded=0;whiteSpace=wrap;html=1;fillColor=light-dark(#FFFFFF,#FFFFFF);strokeColor=light-dark(#000000,#000000);" parent="1" vertex="1">
          <mxGeometry x="850" y="615" width="240" height="80" as="geometry" />
        </mxCell>
        <mxCell id="j457YnfjW28pkleL_D3V-51" value="&lt;b style=&quot;&quot;&gt;&lt;font style=&quot;font-size: 23px;&quot;&gt;S3 Processed Data&lt;/font&gt;&lt;/b&gt;" style="text;strokeColor=none;align=center;fillColor=none;html=1;verticalAlign=middle;whiteSpace=wrap;rounded=0;fontColor=light-dark(#000000,#000000);" parent="1" vertex="1">
          <mxGeometry x="950" y="640" width="120" height="30" as="geometry" />
        </mxCell>
        <mxCell id="j457YnfjW28pkleL_D3V-52" value="" style="sketch=0;points=[[0,0,0],[0.25,0,0],[0.5,0,0],[0.75,0,0],[1,0,0],[0,1,0],[0.25,1,0],[0.5,1,0],[0.75,1,0],[1,1,0],[0,0.25,0],[0,0.5,0],[0,0.75,0],[1,0.25,0],[1,0.5,0],[1,0.75,0]];outlineConnect=0;fontColor=#232F3E;fillColor=#7AA116;strokeColor=#ffffff;dashed=0;verticalLabelPosition=bottom;verticalAlign=top;align=center;html=1;fontSize=12;fontStyle=0;aspect=fixed;shape=mxgraph.aws4.resourceIcon;resIcon=mxgraph.aws4.s3;" parent="1" vertex="1">
          <mxGeometry x="850" y="612" width="83" height="83" as="geometry" />
        </mxCell>
        <mxCell id="j457YnfjW28pkleL_D3V-54" value="" style="edgeStyle=orthogonalEdgeStyle;html=1;endArrow=block;elbow=vertical;startArrow=none;endFill=1;strokeColor=light-dark(#545B64,#000000);rounded=0;exitX=0.5;exitY=1;exitDx=0;exitDy=0;" parent="1" source="mclPiAwEp0GrEzuaHdjd-6" target="j457YnfjW28pkleL_D3V-27" edge="1">
          <mxGeometry width="100" relative="1" as="geometry">
            <mxPoint x="555" y="910" as="sourcePoint" />
            <mxPoint x="360" y="950" as="targetPoint" />
            <Array as="points">
              <mxPoint x="360" y="970" />
              <mxPoint x="360" y="970" />
            </Array>
          </mxGeometry>
        </mxCell>
        <mxCell id="j457YnfjW28pkleL_D3V-56" value="" style="rounded=0;whiteSpace=wrap;html=1;fillColor=light-dark(#FFFFFF,#FFFFFF);strokeColor=light-dark(#000000,#000000);" parent="1" vertex="1">
          <mxGeometry x="600" y="403" width="240" height="80" as="geometry" />
        </mxCell>
        <mxCell id="j457YnfjW28pkleL_D3V-57" value="&lt;b style=&quot;&quot;&gt;&lt;font style=&quot;font-size: 21px;&quot;&gt;AWS Glue Data Catalog&lt;/font&gt;&lt;/b&gt;" style="text;strokeColor=none;align=center;fillColor=none;html=1;verticalAlign=middle;whiteSpace=wrap;rounded=0;fontColor=light-dark(#000000,#000000);" parent="1" vertex="1">
          <mxGeometry x="700" y="428" width="120" height="30" as="geometry" />
        </mxCell>
        <mxCell id="j457YnfjW28pkleL_D3V-53" value="" style="sketch=0;outlineConnect=0;fontColor=#232F3E;gradientColor=none;fillColor=#8C4FFF;strokeColor=none;dashed=0;verticalLabelPosition=bottom;verticalAlign=top;align=center;html=1;fontSize=12;fontStyle=0;aspect=fixed;pointerEvents=1;shape=mxgraph.aws4.glue_data_catalog;" parent="1" vertex="1">
          <mxGeometry x="600" y="403" width="72" height="78" as="geometry" />
        </mxCell>
        <mxCell id="j457YnfjW28pkleL_D3V-61" value="" style="edgeStyle=none;rounded=0;html=1;jettySize=auto;orthogonalLoop=1;strokeColor=light-dark(#404040,#000000);strokeWidth=2;fontColor=#000000;jumpStyle=none;endArrow=none;endFill=0;startArrow=none;dashed=1;exitX=0.75;exitY=0;exitDx=0;exitDy=0;" parent="1" source="mclPiAwEp0GrEzuaHdjd-6" edge="1">
          <mxGeometry width="100" relative="1" as="geometry">
            <mxPoint x="930" y="400" as="sourcePoint" />
            <mxPoint x="420" y="440" as="targetPoint" />
          </mxGeometry>
        </mxCell>
        <mxCell id="j457YnfjW28pkleL_D3V-63" value="" style="edgeStyle=none;rounded=0;html=1;jettySize=auto;orthogonalLoop=1;strokeColor=light-dark(#404040,#000000);strokeWidth=2;fontColor=#000000;jumpStyle=none;endArrow=none;endFill=0;startArrow=none;dashed=1;" parent="1" target="j457YnfjW28pkleL_D3V-53" edge="1">
          <mxGeometry width="100" relative="1" as="geometry">
            <mxPoint x="420" y="440" as="sourcePoint" />
            <mxPoint x="520" y="440" as="targetPoint" />
          </mxGeometry>
        </mxCell>
        <mxCell id="j457YnfjW28pkleL_D3V-64" value="" style="edgeStyle=none;rounded=0;html=1;jettySize=auto;orthogonalLoop=1;strokeColor=light-dark(#404040,#000000);strokeWidth=2;fontColor=#000000;jumpStyle=none;endArrow=none;endFill=0;startArrow=none;dashed=1;exitX=0.5;exitY=0;exitDx=0;exitDy=0;" parent="1" source="j457YnfjW28pkleL_D3V-50" edge="1">
          <mxGeometry width="100" relative="1" as="geometry">
            <mxPoint x="890" y="903" as="sourcePoint" />
            <mxPoint x="970" y="440" as="targetPoint" />
          </mxGeometry>
        </mxCell>
        <mxCell id="j457YnfjW28pkleL_D3V-65" value="" style="edgeStyle=none;rounded=0;html=1;jettySize=auto;orthogonalLoop=1;strokeColor=light-dark(#404040,#000000);strokeWidth=2;fontColor=#000000;jumpStyle=none;endArrow=none;endFill=0;startArrow=none;dashed=1;exitX=1;exitY=0.5;exitDx=0;exitDy=0;" parent="1" source="j457YnfjW28pkleL_D3V-56" edge="1">
          <mxGeometry width="100" relative="1" as="geometry">
            <mxPoint x="1010" y="883" as="sourcePoint" />
            <mxPoint x="970" y="443" as="targetPoint" />
          </mxGeometry>
        </mxCell>
        <mxCell id="j457YnfjW28pkleL_D3V-66" value="" style="edgeStyle=orthogonalEdgeStyle;html=1;endArrow=none;elbow=vertical;startArrow=block;startFill=1;strokeColor=light-dark(#545B64,#000000);rounded=0;exitX=0.5;exitY=1;exitDx=0;exitDy=0;entryX=1;entryY=0.5;entryDx=0;entryDy=0;" parent="1" source="j457YnfjW28pkleL_D3V-50" target="j457YnfjW28pkleL_D3V-3" edge="1">
          <mxGeometry width="100" relative="1" as="geometry">
            <mxPoint x="891" y="930" as="sourcePoint" />
            <mxPoint x="850" y="1072" as="targetPoint" />
          </mxGeometry>
        </mxCell>
        <mxCell id="j457YnfjW28pkleL_D3V-67" value="" style="edgeStyle=orthogonalEdgeStyle;html=1;endArrow=none;elbow=vertical;startArrow=block;startFill=1;strokeColor=light-dark(#545B64,#000000);rounded=0;exitX=0.5;exitY=1;exitDx=0;exitDy=0;" parent="1" source="mclPiAwEp0GrEzuaHdjd-68" target="j457YnfjW28pkleL_D3V-27" edge="1">
          <mxGeometry width="100" relative="1" as="geometry">
            <mxPoint x="1051" y="880" as="sourcePoint" />
            <mxPoint x="1010" y="1022" as="targetPoint" />
            <Array as="points">
              <mxPoint x="1580" y="820" />
              <mxPoint x="905" y="820" />
            </Array>
          </mxGeometry>
        </mxCell>
        <mxCell id="j457YnfjW28pkleL_D3V-75" value="&lt;font style=&quot;color: light-dark(rgb(0, 0, 0), rgb(0, 0, 0)); font-size: 21px;&quot;&gt;Access Layer&lt;/font&gt;" style="swimlane;whiteSpace=wrap;html=1;strokeColor=light-dark(#000000,#000000);fillColor=light-dark(#FFFFFF,#FFFFFF);" parent="1" vertex="1">
          <mxGeometry x="1770" y="630" width="260" height="390" as="geometry" />
        </mxCell>
        <mxCell id="j457YnfjW28pkleL_D3V-76" value="" style="rounded=0;whiteSpace=wrap;html=1;fillColor=light-dark(#FFFFFF,#FFFFFF);strokeColor=light-dark(#000000,#000000);" parent="j457YnfjW28pkleL_D3V-75" vertex="1">
          <mxGeometry x="30" y="70" width="210" height="70" as="geometry" />
        </mxCell>
        <mxCell id="j457YnfjW28pkleL_D3V-78" value="&lt;font style=&quot;font-size: 21px;&quot;&gt;&lt;b style=&quot;&quot;&gt;Firewall Enpoint&lt;/b&gt;&lt;/font&gt;" style="text;strokeColor=none;align=center;fillColor=none;html=1;verticalAlign=middle;whiteSpace=wrap;rounded=0;fontColor=light-dark(#000000,#000000);" parent="j457YnfjW28pkleL_D3V-75" vertex="1">
          <mxGeometry x="120" y="90" width="100" height="30" as="geometry" />
        </mxCell>
        <mxCell id="j457YnfjW28pkleL_D3V-79" value="" style="rounded=0;whiteSpace=wrap;html=1;fillColor=light-dark(#FFFFFF,#FFFFFF);strokeColor=light-dark(#000000,#000000);" parent="j457YnfjW28pkleL_D3V-75" vertex="1">
          <mxGeometry x="30" y="180" width="210" height="70" as="geometry" />
        </mxCell>
        <mxCell id="j457YnfjW28pkleL_D3V-80" value="&lt;font style=&quot;font-size: 21px;&quot;&gt;&lt;b style=&quot;&quot;&gt;Proxy EC2&lt;/b&gt;&lt;/font&gt;" style="text;strokeColor=none;align=center;fillColor=none;html=1;verticalAlign=middle;whiteSpace=wrap;rounded=0;fontColor=light-dark(#000000,#000000);" parent="j457YnfjW28pkleL_D3V-75" vertex="1">
          <mxGeometry x="113.5" y="200" width="116" height="30" as="geometry" />
        </mxCell>
        <mxCell id="j457YnfjW28pkleL_D3V-82" value="" style="sketch=0;outlineConnect=0;fontColor=#232F3E;gradientColor=none;fillColor=#DD344C;strokeColor=none;dashed=0;verticalLabelPosition=bottom;verticalAlign=top;align=center;html=1;fontSize=12;fontStyle=0;aspect=fixed;pointerEvents=1;shape=mxgraph.aws4.network_firewall_endpoints;" parent="j457YnfjW28pkleL_D3V-75" vertex="1">
          <mxGeometry x="36" y="73" width="64" height="64" as="geometry" />
        </mxCell>
        <mxCell id="j457YnfjW28pkleL_D3V-83" value="" style="outlineConnect=0;dashed=0;verticalLabelPosition=bottom;verticalAlign=top;align=center;html=1;shape=mxgraph.aws3.ec2;fillColor=#F58534;gradientColor=none;" parent="j457YnfjW28pkleL_D3V-75" vertex="1">
          <mxGeometry x="39.75" y="180" width="56.5" height="70" as="geometry" />
        </mxCell>
        <mxCell id="j457YnfjW28pkleL_D3V-91" value="" style="rounded=0;whiteSpace=wrap;html=1;fillColor=light-dark(#FFFFFF,#FFFFFF);strokeColor=light-dark(#000000,#000000);" parent="j457YnfjW28pkleL_D3V-75" vertex="1">
          <mxGeometry x="30" y="290" width="210" height="70" as="geometry" />
        </mxCell>
        <mxCell id="j457YnfjW28pkleL_D3V-92" value="&lt;font style=&quot;font-size: 21px;&quot;&gt;&lt;b style=&quot;&quot;&gt;Flask EC2&lt;/b&gt;&lt;/font&gt;" style="text;strokeColor=none;align=center;fillColor=none;html=1;verticalAlign=middle;whiteSpace=wrap;rounded=0;fontColor=light-dark(#000000,#000000);" parent="j457YnfjW28pkleL_D3V-75" vertex="1">
          <mxGeometry x="113.5" y="313" width="113" height="30" as="geometry" />
        </mxCell>
        <mxCell id="j457YnfjW28pkleL_D3V-93" value="" style="outlineConnect=0;dashed=0;verticalLabelPosition=bottom;verticalAlign=top;align=center;html=1;shape=mxgraph.aws3.ec2;fillColor=#F58534;gradientColor=none;" parent="j457YnfjW28pkleL_D3V-75" vertex="1">
          <mxGeometry x="39.75" y="290" width="56.5" height="70" as="geometry" />
        </mxCell>
        <mxCell id="uO-lExHRnH5NHL3P6jUc-3" style="edgeStyle=orthogonalEdgeStyle;rounded=0;orthogonalLoop=1;jettySize=auto;html=1;exitX=0.5;exitY=1;exitDx=0;exitDy=0;entryX=0.25;entryY=1;entryDx=0;entryDy=0;" edge="1" parent="j457YnfjW28pkleL_D3V-75" source="j457YnfjW28pkleL_D3V-92" target="j457YnfjW28pkleL_D3V-92">
          <mxGeometry relative="1" as="geometry" />
        </mxCell>
        <mxCell id="j457YnfjW28pkleL_D3V-95" value="" style="edgeStyle=orthogonalEdgeStyle;html=1;endArrow=block;elbow=vertical;startArrow=none;endFill=1;strokeColor=light-dark(#545B64,#000000);rounded=0;exitX=1;exitY=0.5;exitDx=0;exitDy=0;" parent="1" source="mclPiAwEp0GrEzuaHdjd-57" target="j457YnfjW28pkleL_D3V-82" edge="1">
          <mxGeometry width="100" relative="1" as="geometry">
            <mxPoint x="1800" y="880" as="sourcePoint" />
            <mxPoint x="1800" y="1020" as="targetPoint" />
            <Array as="points">
              <mxPoint x="1700" y="730" />
              <mxPoint x="1700" y="730" />
            </Array>
          </mxGeometry>
        </mxCell>
        <mxCell id="j457YnfjW28pkleL_D3V-97" style="edgeStyle=orthogonalEdgeStyle;rounded=0;orthogonalLoop=1;jettySize=auto;html=1;exitX=1;exitY=0.5;exitDx=0;exitDy=0;strokeColor=light-dark(#000000,#000000);" parent="1" source="j457YnfjW28pkleL_D3V-96" target="mclPiAwEp0GrEzuaHdjd-14" edge="1">
          <mxGeometry relative="1" as="geometry">
            <mxPoint x="800" y="190" as="targetPoint" />
          </mxGeometry>
        </mxCell>
        <mxCell id="j457YnfjW28pkleL_D3V-96" value="&lt;b style=&quot;&quot;&gt;&lt;font style=&quot;font-size: 20px;&quot;&gt;Rule&lt;/font&gt;&lt;/b&gt;" style="ellipse;whiteSpace=wrap;html=1;aspect=fixed;fillColor=light-dark(#FFFFFF,#FFFFFF);strokeColor=light-dark(#000000,#000000);fontColor=light-dark(#000000,#000000);" parent="1" vertex="1">
          <mxGeometry x="738" y="160" width="62" height="62" as="geometry" />
        </mxCell>
        <mxCell id="j457YnfjW28pkleL_D3V-98" value="&lt;b style=&quot;&quot;&gt;&lt;font style=&quot;font-size: 20px;&quot;&gt;Schedule&lt;/font&gt;&lt;/b&gt;" style="ellipse;whiteSpace=wrap;html=1;aspect=fixed;fillColor=light-dark(#FFFFFF,#FFFFFF);strokeColor=light-dark(#000000,#000000);fontColor=light-dark(#000000,#000000);" parent="1" vertex="1">
          <mxGeometry x="457" y="281" width="99" height="99" as="geometry" />
        </mxCell>
        <mxCell id="j457YnfjW28pkleL_D3V-99" value="" style="edgeStyle=orthogonalEdgeStyle;html=1;endArrow=none;elbow=vertical;startArrow=block;startFill=1;strokeColor=light-dark(#545B64,#000000);rounded=0;entryX=0.5;entryY=1;entryDx=0;entryDy=0;exitX=0.5;exitY=0;exitDx=0;exitDy=0;" parent="1" source="j457YnfjW28pkleL_D3V-98" target="mclPiAwEp0GrEzuaHdjd-30" edge="1">
          <mxGeometry width="100" relative="1" as="geometry">
            <mxPoint x="780" y="280" as="sourcePoint" />
            <mxPoint x="720" y="280" as="targetPoint" />
          </mxGeometry>
        </mxCell>
        <mxCell id="j457YnfjW28pkleL_D3V-100" value="" style="edgeStyle=orthogonalEdgeStyle;html=1;endArrow=none;elbow=vertical;startArrow=block;startFill=1;strokeColor=light-dark(#545B64,#000000);rounded=0;entryX=0.5;entryY=1;entryDx=0;entryDy=0;" parent="1" target="j457YnfjW28pkleL_D3V-98" edge="1">
          <mxGeometry width="100" relative="1" as="geometry">
            <mxPoint x="500" y="940" as="sourcePoint" />
            <mxPoint x="635" y="280" as="targetPoint" />
            <Array as="points">
              <mxPoint x="500" y="380" />
            </Array>
          </mxGeometry>
        </mxCell>
        <mxCell id="uO-lExHRnH5NHL3P6jUc-1" style="edgeStyle=orthogonalEdgeStyle;rounded=0;orthogonalLoop=1;jettySize=auto;html=1;exitX=0.5;exitY=1;exitDx=0;exitDy=0;entryX=0.25;entryY=1;entryDx=0;entryDy=0;" edge="1" parent="1" source="mclPiAwEp0GrEzuaHdjd-8" target="mclPiAwEp0GrEzuaHdjd-8">
          <mxGeometry relative="1" as="geometry" />
        </mxCell>
      </root>
    </mxGraphModel>
  </diagram>
</mxfile>
